# xmcd
# 
# Track frame offsets:
#     150
#     13635
#     16200
#     18361
#     20890
# 
# Disc length: 318
# 
# Revision: 1
# Processed by: cddbd v1.5.2PL0 Copyright (c) Steve Scherf et al.
# Submitted via: fre:ac v1.0.17
# 
DISCID=30013c05
DTITLE=Brooks and Dunn - Red Dirt Road Sampler
DYEAR=2003
DGENRE=Country
TTITLE0=Feel's Good Don't It
TTITLE1=That's What She Gets For Loving Me (Snippet)
TTITLE2=You Can't Take The Honky Tonk Out Of The Girl (Snippet)
TTITLE3=Till My Dyin' Day (Snippet)
TTITLE4=Red Dirt Road (Snippet)
EXTD=
EXTT0=
EXTT1=
EXTT2=
EXTT3=
EXTT4=
PLAYORDER=
